<svg xmlns="http://www.w3.org/2000/svg" width="24" height="24" viewBox="0 0 24 24">
  <path fill="#4285F4" d="M12 11v2h5.5c-.22 1.48-1.56 4.37-5.5 4.37-3.31 0-6-2.75-6-6.13s2.69-6.13 6-6.13c1.88 0 3.14.8 3.87 1.5l2.63-2.53C16.38 2.38 14.38 1 12 1 7.31 1 3.5 4.81 3.5 9.5S7.31 18 12 18c4.94 0 8.24-3.47 8.24-8.36 0-.56-.06-1-.14-1.44H12z"/>
  <path fill="#EA4335" d="M3.88 8.46L.79 6.18c1.12-2.05 3.52-3.48 6.21-3.48 2.32 0 4.27 1.28 5.38 2.67L9.75 8.43c-.31-.32-1.19-1.12-2.75-1.12-2.35 0-4.31 1.94-4.31 4.19s1.96 4.19 4.31 4.19c2.75 0 3.75-1.75 3.94-2.69H5.5V9.88h6.94c.08.44.19 1 .19 1.75 0 4-2.75 6.87-7.13 6.87-2.69 0-5.1-1.43-6.21-3.48l3.59-2.56z"/>
</svg> 